/* XPM */
static char *image[] = {
"48 48 197 2",
"   c None",
"00 c #989b93",
"10 c #979994",
"20 c #949893",
"30 c #949791",
"40 c #91958f",
"50 c #91928c",
"60 c #8e918b",
"70 c #8c8e88",
"80 c #dce0da",
"90 c #dde0d9",
":0 c #dde0db",
";0 c #dde0da",
"A0 c #dee1da",
"B0 c #dee0db",
"C0 c #dee1db",
"D0 c #dfe2dc",
"E0 c #e1e4de",
"F0 c #e2e4df",
"G0 c #e4e7e2",
"H0 c #e6e8e3",
"I0 c #c6cac3",
"J0 c #e7e9e4",
"K0 c #828784",
"L0 c #959a96",
"M0 c #e8eae5",
"N0 c #c3c7c0",
"O0 c #4a4f50",
"P0 c #bcc0ba",
"Q0 c #e9ebe6",
"R0 c #565b5b",
"S0 c #2f3637",
"T0 c #6d7371",
"U0 c #3e4445",
"V0 c #a1a7a1",
"W0 c #6e7371",
"X0 c #717774",
"Y0 c #cacec7",
"Z0 c #7d8380",
"a0 c #979c98",
"b0 c #a6aba6",
"c0 c #737776",
"d0 c #ecedea",
"e0 c #c6cac2",
"f0 c #8d918e",
"g0 c #8d928e",
"h0 c #b9bdb7",
"i0 c #333a3b",
"j0 c #c3c8c1",
"k0 c #edeeeb",
"l0 c #a5a9a4",
"m0 c #424748",
"n0 c #989c97",
"o0 c #c6c9c2",
"p0 c #3e4344",
"q0 c #868c88",
"r0 c #f0f1ee",
"s0 c #a1a6a0",
"t0 c #303638",
"u0 c #3b4243",
"v0 c #686e6c",
"w0 c #424340",
"x0 c #f2f3f1",
"y0 c #c0c4bd",
"z0 c #616664",
"01 c #000000",
"11 c #3b3c3a",
"21 c #cdd1ca",
"31 c #525857",
"41 c #474d4e",
"51 c #9ba09a",
"61 c #b6bab4",
"71 c #787c7a",
"81 c #cfd3cb",
"91 c #5b5d5a",
":1 c #d9dcd5",
";1 c #cdd1c9",
"A1 c #898f8b",
"B1 c #626767",
"C1 c #4d5253",
"D1 c #525757",
"E1 c #5e6463",
"F1 c #7e8481",
"G1 c #abb0aa",
"H1 c #939894",
"I1 c #707473",
"J1 c #ccd0c8",
"K1 c #b3b7b1",
"L1 c #cdd2cb",
"M1 c #888d8a",
"N1 c #cbcfc8",
"O1 c #aaafa9",
"P1 c #363c3d",
"Q1 c #8f9490",
"R1 c #373c3e",
"S1 c #8a8e8a",
"T1 c #aaaea9",
"U1 c #b7bbb4",
"V1 c #a0a5a1",
"W1 c #757b78",
"X1 c #656b69",
"Y1 c #f7f8f6",
"Z1 c #7d827f",
"a1 c #5e6362",
"b1 c #bbc0ba",
"c1 c #32383a",
"d1 c #444a4b",
"e1 c #919692",
"f1 c #34393a",
"g1 c #d2d5ce",
"h1 c #9da09c",
"i1 c #2f3537",
"j1 c #6a6f6d",
"k1 c #7f8481",
"l1 c #bbc0b9",
"m1 c #a4a9a4",
"n1 c #3b4142",
"o1 c #f9faf8",
"p1 c #454a4b",
"q1 c #a0a4a0",
"r1 c #646967",
"s1 c #bbbfb8",
"t1 c #8f9390",
"u1 c #b3b8b1",
"v1 c #fafafa",
"w1 c #bdc2ba",
"x1 c #626766",
"y1 c #d2d6ce",
"z1 c #7e8380",
"02 c #2e3436",
"12 c #595f5e",
"22 c #fbfbfb",
"32 c #545959",
"42 c #33383a",
"52 c #484d4e",
"62 c #838784",
"72 c #ced2ca",
"82 c #d0d4cc",
"92 c #b8bcb7",
":2 c #d1d5cd",
";2 c #dce0d8",
"A2 c #fcfcfc",
"B2 c #f1f2ef",
"C2 c #dbded9",
"D2 c #969892",
"E2 c #d4d7ce",
"F2 c #d4d6cf",
"G2 c #d3d7ce",
"H2 c #d3d7cf",
"I2 c #939690",
"J2 c #c2c6bf",
"K2 c #dde1dc",
"L2 c #e0e3dd",
"M2 c #e1e4dd",
"N2 c #e3e5e0",
"O2 c #e3e6e1",
"P2 c #e5e7e2",
"Q2 c #e5e7e3",
"R2 c #e6e8e4",
"S2 c #e6e9e4",
"T2 c #e8eae6",
"U2 c #eaece8",
"V2 c #ebede9",
"W2 c #eceeeb",
"X2 c #eeefec",
"Y2 c #eff0ed",
"Z2 c #f0f2ef",
"a2 c #f1f2f0",
"b2 c #f2f3f0",
"c2 c #f3f4f1",
"d2 c #f3f4f2",
"e2 c #f4f5f3",
"f2 c #f5f5f4",
"g2 c #f5f6f4",
"h2 c #f6f7f5",
"i2 c #f7f7f6",
"j2 c #f7f8f7",
"k2 c #f8f9f7",
"l2 c #f9f9f8",
"m2 c #fafaf9",
"n2 c #fafbfa",
"o2 c #fbfbfa",
"p2 c #fcfcfb",
"q2 c #fcfdfc",
"r2 c #fdfdfd",
"s2 c #fefefe",
"t2 c #ffffff",
"u2 c #979993",
"v2 c #969893",
"w2 c #939890",
"x2 c #929490",
"y2 c #90948e",
"z2 c #8f928c",
"03 c #8d908a",
"13 c #8b8d88",
"23 c #8a8c87",
"33 c #888a85",
"                                                                                                ",
"                                                                                                ",
"                                                                                                ",
"                                                                                                ",
"                                                                                                ",
"                                                                                                ",
"                                                                                                ",
"                                                                                                ",
"                                                                                                ",
"    333333333333333333333333333333333333333333333333333333333333231303z2y2x2w2v2u2              ",
"    33t2s2s2r2q2p2o2n2m2l2k2j2i2h2g2f2e2d2c2b2a2Z2Y2X2W2V2U2T2S2R2Q2P2O2N2M2L2K2                ",
"    33s2J2I233333333333333I2J2H2H2H2H2H2H2H2H2H2H2H2H2H2H2H2H2H2H2H2G2H2F2H2E2                  ",
"    33r2D2C2B2B2B2B2B2B2B2C2D2H2H2H2H2H2H2H2H2H2H2H2H2H2H2H2H2H2H2H2G2H2F2H2E2                  ",
"    33A233B2;2;2;2;2;2;2;2B233H2H2H2H2H2H2H2H2H2H2:29282H2H2726252423272F2H2E2                  ",
"    332233B2;2;2;2;2;2;2;2B233H2H2H2H2H2H2H2H2H2H21202z1H2y1x102020202w1F2H2E2                  ",
"    33v133B2;2;2;2;2;2;2;2B233H2H2H2H2H2H2u1t1:2s10202r1H2q102020202p1y1F2H2E2                  ",
"    33o133B2;2;2;2;2;2;2;2B233H2H2H2H2H2H2n102m1l10202k1H2j1020202i1h1H2F2H2E2                  ",
"    33k233B2;2;2;2;2;2;2;2B233H2H2H2H2H2g1f102e1:2d1c1b1H2a1020202Z1G2H2F2H2E2                  ",
"    33Y133B2;2;2;2;2;2;2;2B233H2H2H2z1X1:2W102V1H2U1T1H2H2S102R1Q1H2G2H2F2H2E2                  ",
"    33h233B2;2;2;2;2;2;2;2B233H2H2H2P102O1N1M1L1H2H2H2H2H2y1K1J1H2H2G2H2F2H2E2                  ",
"    33g233B2;2;2;2;2;2;2;2B233H2H2H2I102H1H2H2g1G1F1E1D1C1B1A1;1H2H2G2H2F2H2E2                  ",
"    33e233B2;2;2;2:191;2;2B233H2H2H2817161y151410202020202020231:2H2G2H2F2H2E2                  ",
"    33d233B2;2;2211101;2;2B233H2H2H2H2H2;1z002020202020202020202y0H2G2H2F2H2E2                  ",
"    33x033B2;2;2w00101;2;2B233H2H2H2H2H2v002020202020202020202u082H2G2H2F2H2E2                  ",
"    33B233B2;2;2211101;2;2B233H2H2H2H2K102020202020202020202t0s0H2H2G2H2F2H2E2                  ",
"    33r033B2;2;2;2:191;2;2B233H2H2H2H2q0020202020202020202p0O1H2H2H2G2H2F2H2E2                  ",
"    33Y233B2;2;2;2;2;2;2;2B233H2H2H2H2Z10202020202020202j1o0H2H2H2H2G2H2F2H2E2                  ",
"    33X233B2;2;2;2;2;2;2;2B233H2H2H2H2n0020202020202m0l0H2H2H2H2H2H2G2H2F2H2E2                  ",
"    33k033B2;2;2;2;2;2;2;2B233H2H2H2H2j0i002020202C1o0H2H2h0g0f0e0H2G2H2F2H2E2                  ",
"    33d033B2;2;2;2;2;2;2;2B233H2H2H2H2H2c002020202b0H2H2a0020202Z0H2G2H2F2H2E2                  ",
"    33V233B2;2;2;2;2;2;2;2B233H2H2H2H2H2Y0d1020202X0H2H2W0020202V0H2G2H2F2H2E2                  ",
"    33U233B2;2;2;2;2;2;2;2B233H2H2H2H2H2H292U002020231T0S00202R0y1H2G2H2F2H2E2                  ",
"    33Q033B2;2;2;2;2;2;2;2B233H2H2H2H2H2H2H2P031020202020202O0N0H2H2G2H2F2H2E2                  ",
"    33M033B2;2;2;2;2;2;2;2B233H2H2H2H2H2H2H2H2g1L032c102n1K0L1H2H2H2G2H2F2H2E2                  ",
"    33J033B2;2;2;2;2;2;2;2B233H2H2H2H2H2H2H2H2H2H2H2g1I0:2H2H2H2H2H2G2H2F2H2E2                  ",
"    33H0D2C2B2B2B2B2B2B2B2C2D2H2H2H2H2H2H2H2H2H2H2H2H2H2H2H2H2H2H2H2G2H2F2H2E2                  ",
"    33P2J2I233333333333333I2J2H2H2H2H2H2H2H2H2H2H2H2H2H2H2H2H2H2H2H2G2H2F2H2E2                  ",
"    33P2P2P2P2P2P2P2P2P2P2P2P2P2P2P2P2P2P2P2P2P2G0O2N2F0E0L2D0C0D0B0A0;0:0909080                ",
"    333333333333333333333333333333333333333333333333333333333333237060504030201000              ",
"                                                                                                ",
"                                                                                                ",
"                                                                                                ",
"                                                                                                ",
"                                                                                                ",
"                                                                                                ",
"                                                                                                ",
"                                                                                                ",
"                                                                                                "};
