/* XPM */
static char *image[] = {
"48 48 349 2",
"   c None",
"00 c #533e20",
"10 c #684f27",
"20 c #684e28",
"30 c #684e27",
"40 c #4f3c1e",
"50 c #6b522b",
"60 c #aa9881",
"70 c #b1a38c",
"80 c #b1a28c",
"90 c #6b502b",
":0 c #7f6847",
";0 c #af9e86",
"A0 c #af9e85",
"B0 c #ae9d85",
"C0 c #ae9d84",
"D0 c #ae9c84",
"E0 c #ad9c84",
"F0 c #ad9c83",
"G0 c #ad9b83",
"H0 c #ad9b82",
"I0 c #ac9b82",
"J0 c #ac9b81",
"K0 c #ac9a81",
"L0 c #b1a088",
"M0 c #7f6846",
"N0 c #79603d",
"O0 c #af9f86",
"P0 c #b0a087",
"Q0 c #b2a38b",
"R0 c #b3a38c",
"S0 c #b7a993",
"T0 c #baac96",
"U0 c #bbad98",
"V0 c #baac97",
"W0 c #b9aa95",
"X0 c #b8aa94",
"Y0 c #b8a993",
"Z0 c #b7a892",
"a0 c #b6a790",
"b0 c #b5a68f",
"c0 c #b4a58e",
"d0 c #b4a48d",
"e0 c #b3a38b",
"f0 c #b2a28a",
"g0 c #b1a189",
"h0 c #b3a48c",
"i0 c #897353",
"j0 c #7d6443",
"k0 c #775f3b",
"l0 c #937f61",
"m0 c #ae9e86",
"n0 c #af9f87",
"o0 c #b0a088",
"p0 c #b2a28b",
"q0 c #b2a38c",
"r0 c #b3a38d",
"s0 c #b5a691",
"t0 c #b6a792",
"u0 c #b9aa96",
"v0 c #baac98",
"w0 c #b9ab97",
"x0 c #b9ab96",
"y0 c #b8aa95",
"z0 c #b7a994",
"01 c #b7a893",
"11 c #b6a892",
"21 c #b6a791",
"31 c #b5a690",
"41 c #b4a58f",
"51 c #b4a48e",
"61 c #b2a38d",
"71 c #b2a28c",
"81 c #b1a18b",
"91 c #b1a18a",
":1 c #b0a089",
";1 c #af9f88",
"A1 c #af9e87",
"B1 c #b3a48e",
"C1 c #927c5f",
"D1 c #7a603e",
"E1 c #745a34",
"F1 c #9d8b70",
"G1 c #afa088",
"H1 c #aa9981",
"I1 c #ac9c84",
"J1 c #ab9c83",
"K1 c #ab9b83",
"L1 c #ab9b82",
"M1 c #aa9b82",
"N1 c #aa9a82",
"O1 c #aa9a81",
"P1 c #a99981",
"Q1 c #a99980",
"R1 c #a9987f",
"S1 c #a8987f",
"T1 c #ae9f88",
"U1 c #9a876b",
"V1 c #775e37",
"W1 c #745b31",
"X1 c #a8987e",
"Y1 c #ae9f85",
"Z1 c #a9987d",
"a1 c #a8977d",
"b1 c #a8977c",
"c1 c #ad9d84",
"d1 c #a59579",
"e1 c #765c34",
"f1 c #775b32",
"g1 c #ae9e84",
"h1 c #ac997e",
"i1 c #af9d83",
"j1 c #b2a187",
"k1 c #755b31",
"l1 c #785c30",
"m1 c #b4a28a",
"n1 c #b2a086",
"o1 c #ae9b80",
"p1 c #b09e84",
"q1 c #b7a890",
"r1 c #775b30",
"s1 c #795d31",
"t1 c #b8a88f",
"u1 c #b3a288",
"v1 c #af9d82",
"w1 c #b1a086",
"x1 c #bcac95",
"y1 c #795c31",
"z1 c #7c5f32",
"02 c #bcad97",
"12 c #b19f85",
"22 c #c1b29d",
"32 c #7b5e31",
"42 c #7e6033",
"52 c #c0b19d",
"62 c #b6a48d",
"72 c #b2a087",
"82 c #b4a38a",
"92 c #c5b6a3",
":2 c #7c5f31",
";2 c #806131",
"A2 c #c4b6a3",
"B2 c #b6a68e",
"C2 c #b3a289",
"D2 c #b5a48c",
"E2 c #c7bba8",
"F2 c #806031",
"G2 c #826233",
"H2 c #c8baa8",
"I2 c #b8a890",
"J2 c #b5a48b",
"K2 c #b7a68d",
"L2 c #ccbfae",
"M2 c #826231",
"N2 c #846333",
"O2 c #b8a991",
"P2 c #b6a68d",
"Q2 c #b7a88f",
"R2 c #836332",
"S2 c #856533",
"T2 c #cdc0af",
"U2 c #baa992",
"V2 c #b8a78f",
"W2 c #b9a890",
"X2 c #d0c6b5",
"Y2 c #846433",
"Z2 c #886732",
"a2 c #cec2b1",
"b2 c #b9a991",
"c2 c #b9aa92",
"d2 c #d1c7b6",
"e2 c #876531",
"f2 c #8a6833",
"g2 c #cfc5b2",
"h2 c #bbac94",
"i2 c #baab93",
"j2 c #896732",
"k2 c #8c6934",
"l2 c #cfc5b3",
"m2 c #bcad96",
"n2 c #bcad95",
"o2 c #d1c6b6",
"p2 c #8b6933",
"q2 c #cfc5b4",
"r2 c #bdae97",
"s2 c #cfc4b4",
"t2 c #8e6a33",
"u2 c #906c34",
"v2 c #cec4b2",
"w2 c #beb099",
"x2 c #cec3b2",
"y2 c #916d36",
"z2 c #926e35",
"03 c #c0b29b",
"13 c #cec3b1",
"23 c #936e37",
"33 c #957036",
"43 c #c1b49d",
"53 c #cdc3b0",
"63 c #967036",
"73 c #977136",
"83 c #ccc2af",
"93 c #c2b59f",
":3 c #ccc1af",
";3 c #977236",
"A3 c #ccc0ae",
"B3 c #997337",
"C3 c #cabeac",
"D3 c #c3b6a1",
"E3 c #cabfac",
"F3 c #d7cfc0",
"G3 c #dad2c5",
"H3 c #dad2c4",
"I3 c #d9d1c4",
"J3 c #d9d1c3",
"K3 c #e0d6cc",
"L3 c #9c7538",
"M3 c #9e7739",
"N3 c #c8bdaa",
"O3 c #c3b7a2",
"P3 c #cfc5b5",
"Q3 c #c8b89c",
"R3 c #a5885a",
"S3 c #9e7d48",
"T3 c #9d7d48",
"U3 c #9d7d47",
"V3 c #9f7f49",
"W3 c #9e793f",
"X3 c #9f793d",
"Y3 c #a07839",
"Z3 c #c7bba9",
"a3 c #c3b7a3",
"b3 c #c8bcaa",
"c3 c #c1ae8e",
"d3 c #9d793e",
"e3 c #7d6641",
"f3 c #7a6546",
"g3 c #7b6648",
"h3 c #7c6748",
"i3 c #877356",
"j3 c #856330",
"k3 c #a37a3a",
"l3 c #c3b7a4",
"m3 c #c5b9a7",
"n3 c #cec1ab",
"o3 c #a27a3f",
"p3 c #766344",
"q3 c #74654d",
"r3 c #78684f",
"s3 c #796950",
"t3 c #7a6a51",
"u3 c #887a63",
"v3 c #7f5f2e",
"w3 c #a47c3b",
"x3 c #c0b29c",
"y3 c #c3b8a6",
"z3 c #c4baa8",
"04 c #c6bcaa",
"14 c #c7beac",
"24 c #c9bfae",
"34 c #cbc1b1",
"44 c #ccc3b3",
"54 c #cdc5b5",
"64 c #d0c7b7",
"74 c #d1c8b9",
"84 c #d3cabc",
"94 c #d4ccbe",
":4 c #d5cec0",
";4 c #d6cfc2",
"A4 c #d7cfc2",
"B4 c #d7d0c3",
"C4 c #d8d0c4",
"D4 c #d8d1c4",
"E4 c #d8d1c5",
"F4 c #caba9f",
"G4 c #a47f45",
"H4 c #846c44",
"I4 c #776750",
"J4 c #7b6b53",
"K4 c #7d6d54",
"L4 c #7e6e55",
"M4 c #8c7e67",
"N4 c #80602e",
"O4 c #a87f3d",
"P4 c #a77e3e",
"Q4 c #a67e3e",
"R4 c #a27c40",
"S4 c #876f48",
"T4 c #7a6b53",
"U4 c #7e6e56",
"V4 c #807057",
"W4 c #807158",
"X4 c #8f826b",
"Y4 c #81612f",
"Z4 c #887a65",
"a4 c #7b6c53",
"b4 c #7b6c54",
"c4 c #7c6d54",
"d4 c #7d6e55",
"e4 c #7f7057",
"f4 c #817258",
"g4 c #827359",
"h4 c #837359",
"i4 c #83745a",
"j4 c #93846e",
"k4 c #82612f",
"l4 c #9b8d76",
"m4 c #9f927e",
"n4 c #a1947f",
"o4 c #a39682",
"p4 c #a49885",
"q4 c #a49985",
"r4 c #a49986",
"s4 c #a59986",
"t4 c #a59a86",
"u4 c #a59a87",
"v4 c #a69a87",
"w4 c #a69a88",
"x4 c #a79b88",
"y4 c #9f937e",
"z4 c #8b7c63",
"05 c #85755b",
"15 c #86755b",
"25 c #86765c",
"35 c #87765c",
"45 c #87775d",
"55 c #968770",
"65 c #866835",
"75 c #9f8f73",
"85 c #908067",
"95 c #846230",
":5 c #9e8c72",
";5 c #8f7f67",
"A5 c #89785e",
"B5 c #988972",
"C5 c #9c8c73",
"D5 c #8f7e66",
"E5 c #89795f",
"F5 c #8a795f",
"G5 c #978971",
"H5 c #846532",
"I5 c #9f8f74",
"J5 c #a89d8a",
"K5 c #a99d8b",
"L5 c #a99d8a",
"M5 c #a89985",
"N5 c #84622f",
"O5 c #83622f",
"P5 c #846330",
"                                                                                                ",
"                                                                                                ",
"                                                                                                ",
"                                                                                                ",
"      P5O5O5O5O5O5O5O5O5O5O5O5O5O5O5O5N5                                                        ",
"      O5M5L5L5K5K5K5K5K5K5L5L5L5L5J5J5I5H5                                                      ",
"      O5G5F5E5E5E5E5E5E5E5E5E5E5E5E5E5D5C5P5                                                    ",
"      O5B5E5A5A5A5A5A5A5A5A5A5A5A5A5A5A5;5:595                                                  ",
"      O5B5E5A5A5A5A5A5A5A5A5A5A5A5A5A5A5A5857565O5O5O5O5O5O5O5O5O5O5O5O5O5O5O5O5O5O5O5O5O5      ",
"      O5554535353535353535353535252515050505z4y4x4x4w4w4w4w4v4u4u4u4t4s4s4r4q4p4o4n4m4l4O5      ",
"      k4j4i4h4h4h4h4h4h4h4h4h4g4f4e4d4c4b4a4a4a4a4a4a4a4a4a4a4a4a4a4a4a4a4a4a4a4a4a4c4Z4k4      ",
"      Y4X4W4V4V4V4V4V4V4V4V4e4U4T4S4R4Q4Q4Q4Q4Q4Q4Q4Q4Q4Q4Q4Q4Q4Q4Q4Q4Q4Q4Q4Q4Q4Q4Q4Q4Q4P4O4    ",
"      N4M4L4K4K4K4K4K4K4K4K4J4I4H4G4F4E4E4D4D4C4C4B4B4B4A4A4;4:494847464544434241404z3y3x3w3    ",
"      v3u3t3s3s3s3s3s3s3s3r3q3p3o3n3m3l3l3l3l3l3l3l3l3l3l3l3l3l3l3l3l3l3l3l3l3l3l3l3l3l3m3k3    ",
"      j3i3h3g3g3g3g3g3g3g3f3e3d3c3b3a3a3a3a3a3a3a3a3a3a3a3a3a3a3a3a3a3a3a3a3a3a3a3a3a3a3Z3Y3    ",
"    X3W3V3U3U3T3T3T3T3T3T3S3R3Q3P3O3O3O3O3O3O3O3O3O3O3O3O3O3O3O3O3O3O3O3O3O3O3O3O3O3O3O3N3M3    ",
"    L3K3J3J3I3I3H3H3H3H3H3G3F3E3D3D3D3D3D3D3D3D3D3D3D3D3D3D3D3D3D3D3D3D3D3D3D3D3D3D3D3D3C3L3    ",
"    B3A3D3D3D3D3D3D3D3D3D3D3D3D3D3D3D3D3D3D3D3D3D3D3D3D3D3D3D3D3D3D3D3D3D3D3D3D3D3D3D3D3A3B3    ",
"    ;3:3939393939393939393939393939393939393939393939393939393939393939393939393939393938373    ",
"    6353434343434343434343434343434343434343434343434343434343434343434343434343434343435333    ",
"    23130303030303030303030303030303030303030303030303030303030303030303030303030303030313z2    ",
"    y2x2w2w2w2w2w2w2w2w2w2w2w2w2w2w2w2w2w2w2w2w2w2w2w2w2w2w2w2w2w2w2w2w2w2w2w2w2w2w2w2w2v2u2    ",
"    t2s2r2r2r2r2r2r2r2r2r2r2r2r2r2r2r2r2r2r2r2r2r2r2r2r2r2r2r2r2r2r2r2r2r2r2r2r2r2r2r2r2q2t2    ",
"    p2o2n2n2n2n2n2n2n2n2n2n2n2n2n2n2n2n2n2n2n2n2n2n2n2n2n2n2n2n2n2n2n2n2n2n2n2n2n2n2n2m2l2k2    ",
"    j2o2i2i2i2i2i2i2i2i2i2i2i2i2i2i2i2i2i2i2i2i2i2i2i2i2i2i2i2i2i2i2i2i2i2i2i2i2i2i2i2h2g2f2    ",
"    e2d2c2b2b2b2b2b2b2b2b2b2b2b2b2b2b2b2b2b2b2b2b2b2b2b2b2b2b2b2b2b2b2b2b2b2b2b2b2b2b2i2a2Z2    ",
"    Y2X2W2V2V2V2V2V2V2V2V2V2V2V2V2V2V2V2V2V2V2V2V2V2V2V2V2V2V2V2V2V2V2V2V2V2V2V2V2V2V2U2T2S2    ",
"    R2x2Q2P2P2P2P2P2P2P2P2P2P2P2P2P2P2P2P2P2P2P2P2P2P2P2P2P2P2P2P2P2P2P2P2P2P2P2P2P2P2O2E3N2    ",
"    M2L2K2J2J2J2J2J2J2J2J2J2J2J2J2J2J2J2J2J2J2J2J2J2J2J2J2J2J2J2J2J2J2J2J2J2J2J2J2J2J2I2H2G2    ",
"    F2E2D2C2C2C2C2C2C2C2C2C2C2C2C2C2C2C2C2C2C2C2C2C2C2C2C2C2C2C2C2C2C2C2C2C2C2C2C2C2C2B2A2;2    ",
"    :292827272727272727272727272727272727272727272727272727272727272727272727272727272625242    ",
"    3222C21212121212121212121212121212121212121212121212121212121212121212121212121212J202z1    ",
"    y1x1w1v1v1v1v1v1v1v1v1v1v1v1v1v1v1v1v1v1v1v1v1v1v1v1v1v1v1v1v1v1v1v1v1v1v1v1v1v1v1u1t1s1    ",
"    r1q1p1o1o1o1o1o1o1o1o1o1o1o1o1o1o1o1o1o1o1o1o1o1o1o1o1o1o1o1o1o1o1o1o1o1o1o1o1o1o1n1m1l1    ",
"    k1j1i1h1h1h1h1h1h1h1h1h1h1h1h1h1h1h1h1h1h1h1h1h1h1h1h1h1h1h1h1h1h1h1h1h1h1h1h1h1h112g1f1    ",
"    e1d1c1b1b1b1a1a1a1a1Z1Z1Z1Z1Z1Z1Z1Z1Z1Z1Z1Z1Z1Z1Z1Z1Z1Z1Z1Z1Z1Z1Z1a1a1a1a1a1b1b1b1Y1X1W1    ",
"    V1U1T1X1S1S1R1Q1Q1P1O1O1O1N1M1L1K1K1J1I1I1I1I1I1I1J1K1K1L1N1N1O1O1H1Q1Q1Q1R1S1S1X1G1F1E1    ",
"    D1C1B1A1;1:191817161B1514131211101z0y0x0w0v0v0w0u0y0z001t0s03141B1r0q0p091:1o0n0m081l0k0    ",
"    j0i0h0n0o0g091f0e0h0d0c0b0a021Z0Y0X0W0x0V0U0V0T0x0X0Y0S0Z02131b0c0d0R0Q0f0g0o0P0O0g0i0N0    ",
"      M0L0K0J0I0I0H0G0F0F0E0D0C0C0B0B0A0;0;0;0n0O0;0;0;0A0B0B0C0C0D0F0F0F0G0I0I0I0J0K0n0:0      ",
"      90I1919191919191818181808080807070q0q0q0q0q0q0q0q07070808080808181919191919191916050      ",
"      403020202020202020202020202020202020202020202020202020202020202020202020202020201000      ",
"                                                                                                ",
"                                                                                                ",
"                                                                                                ",
"                                                                                                ",
"                                                                                                ",
"                                                                                                "};
