/* XPM */
static char *image[] = {
"48 48 761 2",
"   c None",
"00 c #595a56",
"10 c #5a5c58",
"20 c #5d5f5c",
"30 c #5a5d58",
"40 c #585a55",
"50 c #5e605c",
"60 c #f2f3f2",
"70 c #fcfcfb",
"80 c #fafaf9",
"90 c #f8f9f8",
":0 c #626560",
";0 c #676963",
"A0 c #b0b0af",
"B0 c #c9cac7",
"C0 c #696b67",
"D0 c #888985",
"E0 c #9d9e9b",
"F0 c #747571",
"G0 c #a6a7a4",
"H0 c #9f9f9d",
"I0 c #6e6f6b",
"J0 c #6d6e6b",
"K0 c #6d6e6a",
"L0 c #6c6e6a",
"M0 c #6c6d6a",
"N0 c #6c6d69",
"O0 c #6b6d69",
"P0 c #6b6c69",
"Q0 c #6b6c68",
"R0 c #6a6c68",
"S0 c #6a6b68",
"T0 c #6a6b67",
"U0 c #bfbfbc",
"V0 c #c8c9c5",
"W0 c #676964",
"X0 c #ebebe9",
"Y0 c #b7b9b5",
"Z0 c #838681",
"a0 c #b8b9b6",
"b0 c #9a9c97",
"c0 c #ababa9",
"d0 c #a4a5a0",
"e0 c #8e908b",
"f0 c #b0b1ad",
"g0 c #888a85",
"h0 c #9ea09b",
"i0 c #737570",
"j0 c #cfd3cd",
"k0 c #edefed",
"l0 c #babbb9",
"m0 c #878884",
"n0 c #7b7d78",
"o0 c #939692",
"p0 c #777a76",
"q0 c #9d9f9c",
"r0 c #7c7d79",
"s0 c #a6a9a4",
"t0 c #787b77",
"u0 c #90938f",
"v0 c #7f817e",
"w0 c #8f928d",
"x0 c #757672",
"y0 c #d0d0cf",
"z0 c #d5d6d3",
"01 c #f1f1ef",
"11 c #bdbebc",
"21 c #888b85",
"31 c #797a75",
"41 c #717370",
"51 c #7e807e",
"61 c #6c6e6c",
"71 c #80817f",
"81 c #757772",
"91 c #7b7d7b",
":1 c #6f736e",
";1 c #7b7d7a",
"A1 c #656865",
"B1 c #6f716d",
"C1 c #7b7d77",
"D1 c #d9d9d7",
"E1 c #d5d5d3",
"F1 c #d9dad9",
"G1 c #c1c2bf",
"H1 c #8a8c87",
"I1 c #b0b4ac",
"J1 c #f4f6f4",
"K1 c #dcdddb",
"L1 c #c4c6c3",
"M1 c #949691",
"N1 c #b0b3ad",
"O1 c #b3b5b0",
"P1 c #aeb0a9",
"Q1 c #4a4c49",
"R1 c #545652",
"S1 c #454744",
"T1 c #f5f5f5",
"U1 c #e1e2e0",
"V1 c #f7f8f7",
"W1 c #c6c7c5",
"X1 c #8e928c",
"Y1 c #e0e1e0",
"Z1 c #dee2db",
"a1 c #cfd3cb",
"b1 c #e2e4de",
"c1 c #d9d9d8",
"d1 c #6c6f6b",
"e1 c #b3b5b2",
"f1 c #f8f8f8",
"g1 c #e6e7e5",
"h1 c #e2e3e2",
"i1 c #fafafa",
"j1 c #c9cbc8",
"k1 c #969792",
"l1 c #afb2ac",
"m1 c #a1a49d",
"n1 c #999c96",
"o1 c #a3a6a0",
"p1 c #c8c8c6",
"q1 c #cacac9",
"r1 c #c4c4c3",
"s1 c #cbcbca",
"t1 c #c5c6c4",
"u1 c #b3b3b0",
"v1 c #f9faf9",
"w1 c #e9e9e8",
"x1 c #e6e6e6",
"y1 c #fafbfa",
"z1 c #c7c8c6",
"02 c #8c8f8a",
"12 c #c5c7c2",
"22 c #f5f5f3",
"32 c #bfc1bc",
"42 c #8d8f89",
"52 c #b2b4b0",
"62 c #fbfbfa",
"72 c #ebebeb",
"82 c #e3e3e2",
"92 c #c3c5c1",
":2 c #bfc2bd",
";2 c #b7b9b2",
"A2 c #b8bab4",
"B2 c #c0c2bd",
"C2 c #878b85",
"D2 c #8e8f8a",
"E2 c #b0b1ae",
"F2 c #dadad9",
"G2 c #d0d1ce",
"H2 c #bdbfbb",
"I2 c #81837d",
"J2 c #5d5f5a",
"K2 c #61645f",
"L2 c #686a67",
"M2 c #71746f",
"N2 c #757773",
"O2 c #787975",
"P2 c #7b7c78",
"Q2 c #7d7e7b",
"R2 c #7f807c",
"S2 c #81837e",
"T2 c #81837f",
"U2 c #858682",
"V2 c #868684",
"W2 c #868885",
"X2 c #878a85",
"Y2 c #8a8c88",
"Z2 c #8d8f8a",
"a2 c #8f908c",
"b2 c #90928d",
"c2 c #b1b4b0",
"d2 c #f9f9f9",
"e2 c #c8cac6",
"f2 c #bfc0bc",
"g2 c #bdbebb",
"h2 c #8b8c88",
"i2 c #939491",
"j2 c #a4a4a1",
"k2 c #b5b6b3",
"l2 c #c1c2c0",
"m2 c #cacbc8",
"n2 c #cfd0cf",
"o2 c #d6d7d4",
"p2 c #ddddda",
"q2 c #e7e7e4",
"r2 c #e1e2df",
"s2 c #dedfdb",
"t2 c #d9dad7",
"u2 c #d2d5d0",
"v2 c #5d5f5b",
"w2 c #abaca8",
"x2 c #afb1ac",
"y2 c #b6b8b3",
"z2 c #adb0a9",
"03 c #c0c2be",
"13 c #898b87",
"23 c #868986",
"33 c #929392",
"43 c #9c9d9c",
"53 c #a3a4a4",
"63 c #aaacab",
"73 c #b3b4b4",
"83 c #bec0be",
"93 c #cacccb",
":3 c #d3d4d3",
";3 c #d8dad9",
"A3 c #d9dbda",
"B3 c #d9dbd9",
"C3 c #d7d9d8",
"D3 c #d5d7d5",
"E3 c #d3d5d3",
"F3 c #d0d3d1",
"G3 c #ced0ce",
"H3 c #cbcecc",
"I3 c #c9cbc9",
"J3 c #c7cac7",
"K3 c #d6d8d4",
"L3 c #93958f",
"M3 c #60625e",
"N3 c #506072",
"O3 c #a5a9a6",
"P3 c #dcddda",
"Q3 c #d3d4d1",
"R3 c #838784",
"S3 c #2f3f51",
"T3 c #081f3d",
"U3 c #09203f",
"V3 c #092140",
"W3 c #092243",
"X3 c #0a2447",
"Y3 c #0b284e",
"Z3 c #0c2c56",
"a3 c #0d2e5b",
"b3 c #0c2f5c",
"c3 c #0c2e5c",
"d3 c #959791",
"e3 c #5e605d",
"f3 c #626460",
"g3 c #092b59",
"h3 c #59738f",
"i3 c #a3a7a6",
"j3 c #b7bab5",
"k3 c #b3b6af",
"l3 c #d8dbd6",
"m3 c #a2a7a3",
"n3 c #818687",
"o3 c #6f7a83",
"p3 c #5f6f7e",
"q3 c #54677d",
"r3 c #395880",
"s3 c #355a8b",
"t3 c #3c679d",
"u3 c #4372ae",
"v3 c #4677b6",
"w3 c #4477b8",
"x3 c #4375b7",
"y3 c #4174b5",
"z3 c #3f71b3",
"04 c #3c6fb1",
"14 c #396caf",
"24 c #d8dad6",
"34 c #979993",
"44 c #585a56",
"54 c #6c6f6a",
"64 c #d0d1cf",
"74 c #1b5299",
"84 c #57718e",
"94 c #a2a6a4",
":4 c #ebecea",
";4 c #bdbfb9",
"A4 c #bbbdb7",
"B4 c #cacec6",
"C4 c #d3d5cf",
"D4 c #edeeeb",
"E4 c #e0e1df",
"F4 c #cdcfcc",
"G4 c #8d918d",
"H4 c #526780",
"I4 c #355c8e",
"J4 c #3f70b0",
"K4 c #3f71b4",
"L4 c #3e70b3",
"M4 c #3d6fb1",
"N4 c #3a6db0",
"O4 c #386bae",
"P4 c #366aac",
"Q4 c #3265a8",
"R4 c #d9dad6",
"S4 c #d2d3d0",
"T4 c #6c6e6b",
"U4 c #82847e",
"V4 c #bcbeb8",
"W4 c #666863",
"X4 c #ebeceb",
"Y4 c #1a5099",
"Z4 c #1c5198",
"a4 c #67798a",
"b4 c #babdba",
"c4 c #e8eae7",
"d4 c #c9ccc5",
"e4 c #d4d7d0",
"f4 c #d9dbd7",
"g4 c #d5d6d2",
"h4 c #969a96",
"i4 c #4c6583",
"j4 c #386298",
"k4 c #3868a6",
"l4 c #386bad",
"m4 c #396cae",
"n4 c #376aad",
"o4 c #3669ab",
"p4 c #3468aa",
"q4 c #3365a8",
"r4 c #3164a7",
"s4 c #2f62a5",
"t4 c #dadbd7",
"u4 c #c9cbc6",
"v4 c #838580",
"w4 c #868782",
"x4 c #838581",
"y4 c #8b8d88",
"z4 c #727471",
"05 c #686a65",
"15 c #195098",
"25 c #1d5398",
"35 c #828888",
"45 c #dadcd7",
"55 c #e9eae8",
"65 c #e8e9e7",
"75 c #e5e6e3",
"85 c #cfd1cd",
"95 c #dfe1dd",
":5 c #858a8a",
";5 c #325b8f",
"A5 c #3165a8",
"B5 c #3063a6",
"C5 c #2f62a6",
"D5 c #2e61a4",
"E5 c #2b5ea1",
"F5 c #dadcd8",
"G5 c #9c9f99",
"H5 c #868984",
"I5 c #70736f",
"J5 c #858681",
"K5 c #b6b9b2",
"L5 c #b5b8b1",
"M5 c #b2b4ae",
"N5 c #a8aba6",
"O5 c #1a4f97",
"P5 c #1e5298",
"Q5 c #385c89",
"R5 c #8f918f",
"S5 c #f6f7f5",
"T5 c #f9f9f8",
"U5 c #ededec",
"V5 c #bbbfbc",
"W5 c #8f918d",
"X5 c #9ea29f",
"Y5 c #a7aaa7",
"Z5 c #3c5d88",
"a5 c #295997",
"b5 c #2c5fa0",
"c5 c #2d60a3",
"d5 c #2b5fa3",
"e5 c #2b5fa2",
"f5 c #2a5ea1",
"g5 c #295ca0",
"h5 c #285b9f",
"i5 c #265a9d",
"j5 c #dbddd9",
"k5 c #9ea19b",
"l5 c #b9bbb5",
"m5 c #b1b4ad",
"n5 c #6c6e69",
"o5 c #f1f1f0",
"p5 c #1a4f95",
"q5 c #205394",
"r5 c #204e8c",
"s5 c #798288",
"t5 c #fcfcfc",
"u5 c #f5f6f5",
"v5 c #d7d9d7",
"w5 c #7a848a",
"x5 c #436794",
"y5 c #4a698d",
"z5 c #afb3af",
"06 c #edeeec",
"16 c #ced1cd",
"26 c #576d86",
"36 c #245493",
"46 c #26599c",
"56 c #275a9e",
"66 c #265a9e",
"76 c #25599d",
"86 c #24599c",
"96 c #23579c",
":6 c #23579a",
";6 c #21569a",
"A6 c #babdb6",
"B6 c #b9bcb4",
"C6 c #b8bcb5",
"D6 c #b6b8b1",
"E6 c #a8aba4",
"F6 c #6e706b",
"G6 c #efefed",
"H6 c #1f5395",
"I6 c #215495",
"J6 c #22518e",
"K6 c #7e8589",
"L6 c #fdfdfd",
"M6 c #f5f5f4",
"N6 c #747d84",
"O6 c #2c5388",
"P6 c #1d4f90",
"Q6 c #245696",
"R6 c #7a848c",
"S6 c #e4e5e2",
"T6 c #5f7387",
"U6 c #1e508f",
"V6 c #1f5498",
"W6 c #205499",
"X6 c #205498",
"Y6 c #1f5398",
"Z6 c #1f5297",
"a6 c #1e5296",
"b6 c #e2e4e0",
"c6 c #70726d",
"d6 c #ebebea",
"e6 c #265799",
"f6 c #27589a",
"g6 c #285899",
"h6 c #265694",
"i6 c #727f8a",
"j6 c #dddedc",
"k6 c #54667a",
"l6 c #1f467c",
"m6 c #124384",
"n6 c #154a8d",
"o6 c #285998",
"p6 c #406595",
"q6 c #9fa2a0",
"r6 c #506986",
"s6 c #1a4c90",
"t6 c #1a4e93",
"u6 c #1a4f94",
"v6 c #a4a7a1",
"w6 c #72746f",
"x6 c #e6e8e5",
"y6 c #2c5d9c",
"z6 c #2e5e9c",
"07 c #2e5e9b",
"17 c #4e6b8f",
"27 c #d1d3d2",
"37 c #878b89",
"47 c #173d72",
"57 c #11407d",
"67 c #194b8c",
"77 c #2c5c9b",
"87 c #728190",
"97 c #c4c5c3",
":7 c #47668a",
";7 c #194c91",
"A7 c #1a4e92",
"B7 c #1a4f93",
"C7 c #1f5296",
"D7 c #eaeae8",
"E7 c #a6a9a3",
"F7 c #5a5c59",
"G7 c #555753",
"H7 c #747671",
"I7 c #32619f",
"J7 c #34639f",
"K7 c #3563a0",
"L7 c #3764a0",
"M7 c #38639d",
"N7 c #79848d",
"O7 c #e8e9e8",
"P7 c #d0d2ce",
"Q7 c #50657d",
"R7 c #12407e",
"S7 c #245391",
"T7 c #2f5e9c",
"U7 c #34629f",
"V7 c #3f679d",
"W7 c #5f768e",
"X7 c #255391",
"Y7 c #1a4f92",
"Z7 c #1e5295",
"a7 c #656763",
"b7 c #676a65",
"c7 c #6a6c67",
"d7 c #72736f",
"e7 c #595b57",
"f7 c #b0b2ad",
"g7 c #ced0cb",
"h7 c #d8d9d5",
"i7 c #757873",
"j7 c #dddeda",
"k7 c #3a67a2",
"l7 c #3c69a4",
"m7 c #3d69a3",
"n7 c #426a9f",
"o7 c #838a8e",
"p7 c #dbdcda",
"q7 c #8f9290",
"r7 c #234d85",
"s7 c #2e5c97",
"t7 c #34629e",
"u7 c #3c68a3",
"v7 c #255798",
"w7 c #1b4f94",
"x7 c #1c5094",
"y7 c #eff0ee",
"z7 c #aaada7",
"08 c #dedfdc",
"18 c #bbbdb9",
"28 c #777975",
"38 c #575855",
"48 c #777a75",
"58 c #d8dad5",
"68 c #3f6ba4",
"78 c #426da6",
"88 c #426ea7",
"98 c #446fa7",
":8 c #4570a6",
";8 c #4b70a2",
"A8 c #6d7e8f",
"B8 c #969996",
"C8 c #caccca",
"D8 c #5f748c",
"E8 c #33619d",
"F8 c #3865a0",
"G8 c #3b68a3",
"H8 c #1e5195",
"I8 c #1f5396",
"J8 c #215497",
"K8 c #235597",
"L8 c #245698",
"M8 c #f1f2f1",
"N8 c #acafa9",
"O8 c #dbdcd9",
"P8 c #777974",
"Q8 c #c7c9c4",
"R8 c #2d63a9",
"S8 c #3368ae",
"T8 c #797c77",
"U8 c #d2d4cf",
"V8 c #416ca5",
"W8 c #436da6",
"X8 c #456fa7",
"Y8 c #4770a7",
"Z8 c #4871a8",
"a8 c #4972a9",
"b8 c #4a72a8",
"c8 c #205194",
"d8 c #2b558d",
"e8 c #66788b",
"f8 c #496b95",
"g8 c #35629e",
"h8 c #3965a1",
"i8 c #3c69a3",
"j8 c #3a66a1",
"k8 c #1d5094",
"l8 c #1e5194",
"m8 c #1f5195",
"n8 c #205295",
"o8 c #215396",
"p8 c #225496",
"q8 c #235496",
"r8 c #245597",
"s8 c #255698",
"t8 c #f3f4f2",
"u8 c #aeb1aa",
"v8 c #4072b3",
"w8 c #3c6fb0",
"x8 c #dddedb",
"y8 c #7c7e79",
"z8 c #565854",
"09 c #c6c8c2",
"19 c #092c5a",
"29 c #2f63a8",
"39 c #3568ac",
"49 c #7b7e79",
"59 c #0c305d",
"69 c #0d305e",
"79 c #0d305d",
"89 c #0c2f5d",
"99 c #0d2f5d",
":9 c #b0b3ac",
";9 c #3b6eaf",
"A9 c #386aac",
"B9 c #dee0dc",
"C9 c #5b5d59",
"D9 c #c5c7c1",
"E9 c #3467a7",
"F9 c #396aaa",
"G9 c #7d807c",
"H9 c #c4c7c1",
"I9 c #c9ccc7",
"J9 c #cacdc7",
"K9 c #cccec9",
"L9 c #cfd2cd",
"M9 c #d3d5d0",
"N9 c #d7d8d4",
"O9 c #dadbd8",
"P9 c #dddfdb",
"Q9 c #dfe1de",
"R9 c #e5e6e4",
"S9 c #e8e9e6",
"T9 c #eaebe9",
"U9 c #ededeb",
"V9 c #efefee",
"W9 c #f2f3f1",
"X9 c #f4f4f3",
"Y9 c #f7f7f7",
"Z9 c #f7f7f6",
"a9 c #f6f6f5",
"b9 c #f5f6f4",
"c9 c #f4f5f3",
"d9 c #f0f1f0",
"e9 c #3366a8",
"f9 c #3264a6",
"g9 c #e0e1de",
"h9 c #848782",
"i9 c #5f615d",
"j9 c #c4c6c0",
"k9 c #0a2d5b",
"l9 c #3968a5",
"m9 c #3e6ca9",
"n9 c #627a95",
"o9 c #818380",
"p9 c #848681",
"q9 c #858883",
"r9 c #878a84",
"s9 c #8b8d87",
"t9 c #8f928c",
"u9 c #91938e",
"v9 c #939690",
"w9 c #959892",
"x9 c #979994",
"y9 c #989b95",
"z9 c #9b9e98",
"0: c #9d9f99",
"1: c #9fa19b",
"2: c #a0a39d",
"3: c #a4a6a1",
"4: c #a5a8a3",
"5: c #a8aba5",
"6: c #aaaca6",
"7: c #abaea8",
"8: c #adb0aa",
"9: c #afb2ab",
":: c #b1b3ad",
";: c #b2b5af",
"A: c #b4b7b0",
"B: c #b6b8b2",
"C: c #b3b6b2",
"D: c #728ca9",
"E: c #2a5ea0",
"F: c #295c9f",
"G: c #0b2d5b",
"H: c #e1e3e0",
"I: c #646662",
"J: c #c2c5bf",
"K: c #3f6ba5",
"L: c #436fa8",
"M: c #4772aa",
"N: c #4973ab",
"O: c #4b76ad",
"P: c #3464a2",
"Q: c #1e5399",
"R: c #2a5b9d",
"S: c #4672aa",
"T: c #3c6aa6",
"U: c #22569a",
"V: c #225598",
"W: c #225498",
"X: c #205497",
"Y: c #e3e4e1",
"Z: c #686a66",
"a: c #c1c4be",
"b: c #4c75ab",
"c: c #5077ac",
"d: c #517aad",
"e: c #547bae",
"f: c #4973aa",
"g: c #174c91",
"h: c #174c92",
"i: c #3966a2",
"j: c #4a74aa",
"k: c #305f9d",
"l: c #1d5195",
"m: c #1f5295",
"n: c #205396",
"o: c #225597",
"p: c #e4e6e3",
"q: c #92958f",
"r: c #6d6f6a",
"s: c #c0c3bc",
"t: c #547aac",
"u: c #587daf",
"v: c #5b7faf",
"w: c #5d81b1",
"x: c #295998",
"y: c #194c8f",
"z: c #235494",
"0; c #456fa5",
"1; c #5076aa",
"2; c #235495",
"3; c #205193",
"4; c #215293",
"5; c #225394",
"6; c #245595",
"7; c #0b2e5b",
"8; c #e6e7e4",
"9; c #71736f",
":; c #bfc2bb",
";; c #113360",
"A; c #0e315f",
"B; c #0e325f",
"C; c #0f3260",
"D; c #103361",
"E; c #133562",
"F; c #e7e8e6",
"G; c #787a74",
"H; c #aeb0ab",
"I; c #c3c5bf",
"J; c #c8cac5",
"K; c #cdcfca",
"L; c #d2d4d0",
"M; c #d7d9d5",
"N; c #dcdeda",
"O; c #e2e3e0",
"P; c #e7e8e5",
"Q; c #ecedeb",
"R; c #f1f2f0",
"S; c #f6f7f6",
"T; c #fbfbfb",
"U; c #fdfdfc",
"V; c #f8f8f7",
"W; c #f3f3f2",
"X; c #eeeeed",
"Y; c #d2d4d1",
"Z; c #a2a59f",
"a; c #7d817c",
"b; c #7e807b",
"c; c #80827d",
"d; c #82857f",
"e; c #848781",
"f; c #878984",
"g; c #898b86",
"h; c #8b8e88",
"i; c #8d908a",
"j; c #90928c",
"k; c #92948f",
"l; c #949791",
"m; c #969993",
"n; c #999b95",
"o; c #9b9d97",
"p; c #9da09a",
"q; c #9fa29c",
"r; c #a6a7a2",
"                                                                                                ",
"                                                                                                ",
"                                                                                                ",
"                                                                                                ",
"                                                                                                ",
"                                                                                                ",
"        r;q;p;o;n;m;l;k;j;i;h;g;f;e;d;c;b;a;        r;q;p;o;n;m;l;k;j;i;h;g;f;e;d;c;b;a;        ",
"      Z;Y;X;W;V;U;T;S;R;Q;P;O;N;M;L;K;J;I;H;G;    Z;Y;X;W;V;U;T;S;R;Q;P;O;N;M;L;K;J;I;H;G;      ",
"      o;F;E;D;D;D;D;D;D;C;C;C;C;C;C;B;A;;;:;9;    o;F;E;D;D;D;D;D;D;C;C;C;C;C;C;B;A;;;:;9;      ",
"      m;8;7;6;5;4;3;2;1;0;z:y:x:w:v:u:t:7;s:r:    m;8;7;6;5;4;3;2;1;0;z:y:x:w:v:u:t:7;s:r:      ",
"      q:p:7;o:n:m:l:k:j:i:h:g:f:e:d:c:b:7;a:Z:    q:p:7;o:n:m:l:k:j:i:h:g:f:e:d:c:b:7;a:Z:      ",
"      i;Y:7;X:W:V:U:T:S:R:Q:P:O:N:M:L:K:7;J:I:    i;Y:7;X:W:V:U:T:S:R:Q:P:O:N:M:L:K:7;J:I:      ",
"      g;H:G:F:E:D:C:B:A:;:::9:8:7:6:5:4:3:Z;2:1:0:z9y9x9w9v9u9t9i;s9g;r9q9p9o9n9m9l9k9j9i9      ",
"      h9g9k9f9e9;:d9W;c9b9a9Z9Y9V;V;Z9a9X9W9d9V9U9T9S9R9Y:Q9P9O9N9M9L9K9J9I9H9G9F9E9k9D9C9      ",
"      c;B9k9A9;9:9X999897969696969696969697959898989898989898989898989898999K;4939291909z8      ",
"      y8x8k9w8v8u8t819s8r8r8q8p8o8n8m:m8l8k8j8i8h8g8f8e8d8c8b8a8Z8Y8X8W8V819U8T8S8R819Q8z8      ",
"      P8O8191919N8M819L8L8K8o:J8n:I8m:H8l:m:K:G8F8E8D8C8B8A8;8:8988878V868195848191919J;38      ",
"      281808Y:F;z7y719K8o:J8n:I8m:H8l:x7w7v7u7i:t7s7r7q7M8p7o7n7m7l7i8k7i:19j7i7h7M9g7f7e7      ",
"        d7c7b7a75:U919J8n:I8Z7H8l:x7w7Y7X7W7V7U7T7S7R7Q7P7T;O7N7M7L7K7J7I719O;H7G7G7G7F7        ",
"                E7D719C7Z7H8l:x7w7B7A7;7:79787T77767574737a9Z9271707z6y6y619x6w6                ",
"                v6R919H8l:x7w7B7u6u6t6s6r6J:q6p6o6n6m6l6k6j6c9V;i6h6g6f6e619d6c6                ",
"                Z;b619l:a6Z6Y6X6W6X6V6U6T6M;S6R6Q6w7P6O6N6Q;M6L6K6J6I6H6Z719G6F6E6D6C6B6A6      ",
"                2:B919;6:696867666564636261606z5y5L8x5w5v5V;u5t5s5r5q5a6p519o5n5        m5l5    ",
"                k5j519i5h5g5f5e5d5c5b5a5Z5Y5N;x6X5W5V5U5W;y7T5S5R5Q5m:P5O519o5c7N5M5L5L5K5A6    ",
"        J5c;I5H5G5F519E5c5D5C5B5A5e9f9k:;5:5958575Q;65R955W;t845N;356;251519y705z4y4x4w4        ",
"        v4u4o;g;o;t419s4r4q4p4o4n4m4l4k4j4i4h4P9M;g4f4Y:Q;06e4d4c4b4a4Z4Y419X4W4p;g;V4U4        ",
"      T4S4S5S5S5n;R419Q4p4P4O4N4M4L4K4J4m7I4H4G4F4E4Q;W9D4C4B4A4;4:494847419P;I:S5S5S56454      ",
"      i944444444342419p4n41404z3y3x3w3v3u3t3s3r3q3p3o3n3m3R9l3l5k3j3:4i3h3g3O;f344444444e3      ",
"                d3M;19c3b379696969696979a3Z3Y3X3W3V3U3T3S3R3Q3P3;:8:j3y7O3N3O8M3                ",
"                L3K3J3I3H3G3F3E3D3C3B3A3;3:393837363534333231303P9z2y2u4X9x2w2v2                ",
"                u9u2h7t2j5s295r2Y:S68;P;P;q2Y:p2o2n2m2l2k2j2i2h2g208f2e2O8d2c2P8                ",
"                k;b2t9a2Z2h;Y2g;X2W2V2U2T2S2R2Q2P2O2N2M2c6L2K2J2I2H2F;G2F2X4t5E2D2              ",
"                                        C2B2A2A2;2;2:2e;          y492o58272X;625242            ",
"                                        32T;222222226212            02z1y172x1w1v1u1            ",
"                                    Z2Z;t1s1r1r1r1r1q1p1o1n1m1l1K5l5;2k1j1i1x1h1g1f1e1          ",
"                                  d1c1b1a1a1a1a1a1a1a1a1Z1Y1H7          X1W1V1h1j6U1T152        ",
"                                  S1G7G7G7G7G7G7G7G7G7G7G7R1Q1    P1k3O1N1M1L1T1j6c1K1J1        ",
"                                                                  I1        H1G1W;F1E1D1        ",
"                      C1B1A1;1A1;1A1;1A1;1A1;1A1;1A1;1:191A1;1817161514131    211101z0y0        ",
"                    x0w0v0u0t0u0t0u0t0u0t0u0t0u0t0u0t0s0R2r0r0q0T8u0p0o0n0      m0l0k0j0        ",
"                    i0g2h0g;h0g0g0g0g0g0g0g0g0g;h0g;h0M1f0e0d0c0b0g;h0f;a0n5      Z0Y0X0        ",
"                  W0V0U0T0S0R0Q0P0O0N0M0L0K0J0J0I0I0J0H0G0F0O2E0D0S0T0C0B0A0;0                  ",
"                  :0a9Z9Z9Y9V;V;f190T5d280i1i1y1T;T;T;70T;i1i1i1809090V;f16050                  ",
"                  403020202020202020202020202020202020202020202020202020201000                  ",
"                                                                                                ",
"                                                                                                ",
"                                                                                                ",
"                                                                                                "};
