/* XPM */
static char *image[] = {
"24 24 139 2",
"   c None",
"00 c #000000",
"10 c #676767",
"20 c #789bd0",
"30 c #7ea3da",
"40 c #7da3da",
"50 c #7597c7",
"60 c #45526a",
"70 c #e8e8e8",
"80 c #6991cc",
"90 c #6b96d6",
":0 c #6d97d6",
";0 c #6f91c3",
"A0 c #a7a7a7",
"B0 c #cacaca",
"C0 c #b7b7b7",
"D0 c #7196cf",
"E0 c #7099d7",
"F0 c #6c97d6",
"G0 c #6e97d6",
"H0 c #789bd2",
"I0 c #6f99d7",
"J0 c #6c96d6",
"K0 c #e9e9e9",
"L0 c #b8b8b8",
"M0 c #cccccc",
"N0 c #7c9fd2",
"O0 c #7ea4db",
"P0 c #79a0da",
"Q0 c #739cd8",
"R0 c #6e98d6",
"S0 c #eaeaea",
"T0 c #7ea0d3",
"U0 c #759dd9",
"V0 c #709ad8",
"W0 c #ebebeb",
"X0 c #cdcdcd",
"Y0 c #a8a8a8",
"Z0 c #b9b9b9",
"a0 c #7fa1d3",
"b0 c #769ed9",
"c0 c #719bd8",
"d0 c #80a2d4",
"e0 c #84a7dd",
"f0 c #789fda",
"g0 c #739cd9",
"h0 c #ececec",
"i0 c #82a4d4",
"j0 c #86a9dd",
"k0 c #7aa1da",
"l0 c #759ed9",
"m0 c #ededed",
"n0 c #cfcfcf",
"o0 c #bbbbbb",
"p0 c #84a4d5",
"q0 c #779fda",
"r0 c #eeeeee",
"s0 c #85a5d5",
"t0 c #83a8dd",
"u0 c #7da3db",
"v0 c #78a0da",
"w0 c #d0d0d0",
"x0 c #ababab",
"y0 c #86a6d6",
"z0 c #7aa1db",
"01 c #efefef",
"11 c #88a8d6",
"21 c #8caedf",
"31 c #81a6dc",
"41 c #7ca2db",
"51 c #bcbcbc",
"61 c #bdbdbd",
"71 c #d8dee7",
"81 c #3763a5",
"91 c #8da5c9",
":1 c #cbd4e2",
";1 c #7592be",
"A1 c #f7f7f7",
"B1 c #8aa9d7",
"C1 c #8daee0",
"D1 c #83a7dd",
"E1 c #7ea3dc",
"F1 c #f1f1f1",
"G1 c #7c98c1",
"H1 c #6082b6",
"I1 c #aebed6",
"J1 c #8ea6c9",
"K1 c #d2dae5",
"L1 c #8eafe0",
"M1 c #8aacdf",
"N1 c #84a8dd",
"O1 c #7fa4dc",
"P1 c #d1d1d1",
"Q1 c #cad4e2",
"R1 c #335fa3",
"S1 c #dee3eb",
"T1 c #90a7ca",
"U1 c #8caad7",
"V1 c #8fafe0",
"W1 c #8bacdf",
"X1 c #85a8de",
"Y1 c #81a5dc",
"Z1 c #f2f2f2",
"a1 c #4f75af",
"b1 c #9aafce",
"c1 c #a9bbd5",
"d1 c #8baad7",
"e1 c #8fb0e0",
"f1 c #8aaddf",
"g1 c #85a9dd",
"h1 c #82a7dc",
"i1 c #f3f3f3",
"j1 c #d2d2d2",
"k1 c #bebebe",
"l1 c #9cb1cf",
"m1 c #3a65a6",
"n1 c #eaedf0",
"o1 c #f9f9f9",
"p1 c #88a7d6",
"q1 c #8caee0",
"r1 c #89abdf",
"s1 c #86a9de",
"t1 c #8baddf",
"u1 c #f0f0f0",
"v1 c #f4f4f4",
"w1 c #f5f5f5",
"x1 c #f8f8f8",
"y1 c #83a3d4",
"z1 c #88abde",
"02 c #87aade",
"12 c #8daedf",
"22 c #9fb8df",
"32 c #f6f6f6",
"42 c #fbfbfb",
"52 c #fdfdfd",
"62 c #a2badc",
"72 c #abc4e8",
"82 c #abc3e8",
"92 c #adc5e7",
"                                                ",
"                                                ",
"      928272625242424242424242424242424232      ",
"    221202z1y1x1w1w1w1w1w1w1w1w1w1v1v1v1w1u1    ",
"    t1s1r1q1p1o1v1v1n1m1l1v1v1v1k1k1j1k1i1w1    ",
"    h1g1f1e1d1x1v1v1c1b1a1v1v1v1v1v1i1i1Z1Z1    ",
"    Y1X1W1V1U1x1v1v1T1S1R1Q1v1v1k1k1j1P1i1Z1    ",
"    O1N1M1L1d1x1i1K1J1I1H1G1i1i1i1i1i1Z1Z1F1    ",
"    E1D1r1C1B1A1Z1;1:1Z1918171Z161P16151F1u1    ",
"    413102211132F1F1F1F1F1F1F1F1F1F1F1F1u101    ",
"    z0O1X1M1y032F1x0x05151w0w05151w051w0u101    ",
"    v0u0t0z1s032F1F1F1F1F1F1F1F1F1u1u1u101r0    ",
"    q041D102p032u1o0n0o0o0o0o0n0n0n00101r0m0    ",
"    l0k031j0i0320101010101010101010101r0m0h0    ",
"    g0f0O1e0d0320101010101010101010101r0m0h0    ",
"    c0b0u0h1a0w1r0Z0Z0Z0Z0Y0Y0Z0Z0X0X0X0h0W0    ",
"    V0U04131T0v1m0m0m0m0m0m0m0m0m0m0m0h0W0S0    ",
"    R0Q0P0O0N0v1h0Y0Z0Z0M0Z0Z0Z0M0Z0M0L0S0K0    ",
"    J0I0U0z0H0v1h0h0h0h0h0h0h0h0h0h0W0W0S0K0    ",
"    G0F0E0Q0D0Z1S0C0B0C0A0A0C0B0S0S0S0K0K0K0    ",
"    ;0:090F080Z1707070707070707070707070K0w0    ",
"    6050403020v1m0m0m0m0m0m0m0m0m0m0m0m0j110    ",
"        00000000000000000000000000000000        ",
"                                                "};
